<svg xmlns="http://www.w3.org/2000/svg" viewBox="0 0 199.52 54.07">
  <g data-name="Layer 2">
    <g data-name="Layer 1">
      <text transform="translate(0 41.06)" fill="#fff" font-size="48" font-family="Roboto-Bold,Roboto" font-weight="700" letter-spacing="-.03em">sha
        <tspan x="72.95" y="0" letter-spacing="-.04em">r</tspan>
        <tspan x="88.58" y="0">e</tspan>
        <tspan x="113.08" y="0" letter-spacing="-.02em">.</tspan>
        <tspan x="125.92" y="0" letter-spacing=".02em">it</tspan>
      </text>
      <path fill="#fff" d="M183.41 33.2a4.27 4.27 0 0 0-2.89 1.1l-10.39-6.22a4.06 4.06 0 0 0 0-2.05l10.42-5.91a4.39 4.39 0 1 0-1.37-3.23 4.8 4.8 0 0 0 .12 1l-10.4 5.93a4.4 4.4 0 1 0-.08 6.43l10.38 6.22a4.17 4.17 0 0 0-.13 1 4.29 4.29 0 1 0 4.34-4.23zM199.38 27.66a4.8 4.8 0 0 0 .14-1"
      />
    </g>
  </g>
</svg>
