<svg xmlns="http://www.w3.org/2000/svg" xmlns:xlink="http://www.w3.org/1999/xlink" height="680px" width="1440px" version="1.1" viewBox="0 0 1440 680"><!-- Generator: Sketch 46.2 (44496) - http://www.bohemiancoding.com/sketch -->
 <title>cover/video_green</title>
 <desc>Created with Sketch.</desc>
 <defs>
  <linearGradient id="linearGradient-1" y1="81.757%" x2="-.69444%" x1="100%" y2="32.297%">
   <stop stop-color="#EFF7E6" offset="0"/>
   <stop stop-color="#DEF0CC" offset="1"/>
  </linearGradient>
  <polygon id="path-2" points="0 0 1440 1.3307 1440 680 0 680"/>
  <linearGradient id="linearGradient-4" y1="53.419%" x2="120.81%" x1="50%" y2="110.3%">
   <stop stop-color="#E4F3D6" offset="0"/>
   <stop stop-color="#F6FFEC" offset="1"/>
  </linearGradient>
  <linearGradient id="linearGradient-5" y1="32.247%" x2="10.564%" x1="43.82%" y2="100%">
   <stop stop-color="#EDF6E3" offset="0"/>
   <stop stop-color="#F6FFEB" offset="1"/>
   <stop stop-color="#F6FFEC" offset="1"/>
  </linearGradient>
  <linearGradient id="linearGradient-6" y1="95.552%" x2="105.49%" x1="55.755%" y2="44.302%">
   <stop stop-color="#E4F1D6" offset="0"/>
   <stop stop-color="#F6FFEC" offset="1"/>
  </linearGradient>
 </defs>
 <g id="Symbols" fill-rule="evenodd" fill="none">
  <g id="cover/video_green">
   <g id="cover/video">
    <mask id="mask-3" fill="white">
     <use xlink:href="#path-2"/>
    </mask>
    <use id="back1" xlink:href="#path-2" transform="translate(720 340) scale(1 -1) translate(-720 -340)" fill="url(#linearGradient-1)"/>
    <g id="geometic1" mask="url(#mask-3)">
     <g transform="translate(720 578.5) scale(1 -1) translate(-720 -578.5)">
      <path id="Oval" fill="url(#linearGradient-4)" d="m0 1156c318.67 0 577-258.6 577-577.61 0-319-258.33-577.6-577-577.6" transform="translate(288.5 578.39) scale(-1 1) translate(-288.5 -578.39)"/>
      <circle id="Oval-2" cy="723.5" cx="1007.5" r="432.5" fill="url(#linearGradient-5)"/>
      <circle id="Oval-3" cy="1065" cx="577" r="90" fill="url(#linearGradient-6)"/>
     </g>
    </g>
   </g>
  </g>
 </g>
</svg>
